<svg width="109" height="110" viewBox="0 0 109 110" fill="none" xmlns="http://www.w3.org/2000/svg">
<g filter="url(#filter0_dd_822_2477)">
<ellipse cx="54.4569" cy="41.0809" rx="26.1483" ry="26.637" fill="#218D82"/>
</g>
<ellipse cx="3.66565" cy="3.91002" rx="3.66565" ry="3.91002" transform="matrix(1 0 0 -1 36.1284 31.0613)" fill="#2B4360" fill-opacity="0.25"/>
<ellipse cx="2.93252" cy="3.17689" rx="2.93252" ry="3.17689" transform="matrix(1 0 0 -1 50.3027 21.2864)" fill="#2B4360" fill-opacity="0.25"/>
<circle cx="0.977506" cy="0.977506" r="0.977506" transform="matrix(1 0 0 -1 50.3027 24.2188)" fill="#E29578" fill-opacity="0.25"/>
<circle cx="0.977506" cy="0.977506" r="0.977506" transform="matrix(1 0 0 -1 57.145 60.8752)" fill="#E29578" fill-opacity="0.25"/>
<circle cx="0.488753" cy="0.488753" r="0.488753" transform="matrix(1 0 0 -1 43.9487 23.2412)" fill="#E29578" fill-opacity="0.25"/>
<circle cx="1.95501" cy="1.95501" r="1.95501" transform="matrix(1 0 0 -1 31.73 15.9102)" fill="#2B4360" fill-opacity="0.25"/>
<circle cx="5.62066" cy="5.62066" r="5.62066" transform="matrix(1 0 0 -1 46.8813 59.8977)" fill="#2B4360" fill-opacity="0.25"/>
<ellipse cx="1.95501" cy="1.71063" rx="1.95501" ry="1.71063" transform="matrix(1 0 0 -1 41.0161 62.3416)" fill="#2B4360" fill-opacity="0.25"/>
<circle cx="0.488753" cy="0.488753" r="0.488753" transform="matrix(1 0 0 -1 32.7075 20.3088)" fill="#E29578" fill-opacity="0.25"/>
<ellipse cx="3.66565" cy="3.91002" rx="3.66565" ry="3.91002" transform="matrix(1 0 0 -1 20.9775 29.1064)" fill="#2B4360" fill-opacity="0.25"/>
<ellipse cx="3.42127" cy="3.17689" rx="3.42127" ry="3.17689" transform="matrix(1 0 0 -1 46.8813 41.814)" fill="#2B4360" fill-opacity="0.25"/>
<circle cx="0.977506" cy="0.977506" r="0.977506" transform="matrix(1 0 0 -1 23.4214 33.0164)" fill="#2B4360" fill-opacity="0.25"/>
<circle cx="0.488753" cy="0.488753" r="0.488753" transform="matrix(1 0 0 -1 53.2354 42.3027)" fill="#E29578" fill-opacity="0.25"/>
<circle cx="0.488753" cy="0.488753" r="0.488753" transform="matrix(1 0 0 -1 20 30.0837)" fill="#E29578" fill-opacity="0.25"/>
<circle cx="0.977506" cy="0.977506" r="0.977506" transform="matrix(1 0 0 -1 32.2188 48.6565)" fill="#E29578" fill-opacity="0.25"/>
<line x1="90.5" y1="12.0009" x2="90.3916" y2="74.0801" stroke="#2B4360"/>
<defs>
<filter id="filter0_dd_822_2477" x="0.308594" y="0.443848" width="108.296" height="109.274" filterUnits="userSpaceOnUse" color-interpolation-filters="sRGB">
<feFlood flood-opacity="0" result="BackgroundImageFix"/>
<feColorMatrix in="SourceAlpha" type="matrix" values="0 0 0 0 0 0 0 0 0 0 0 0 0 0 0 0 0 0 127 0" result="hardAlpha"/>
<feOffset dy="10"/>
<feGaussianBlur stdDeviation="5"/>
<feColorMatrix type="matrix" values="0 0 0 0 0 0 0 0 0 0 0 0 0 0 0 0 0 0 0.22 0"/>
<feBlend mode="normal" in2="BackgroundImageFix" result="effect1_dropShadow_822_2477"/>
<feColorMatrix in="SourceAlpha" type="matrix" values="0 0 0 0 0 0 0 0 0 0 0 0 0 0 0 0 0 0 127 0" result="hardAlpha"/>
<feOffset dy="14"/>
<feGaussianBlur stdDeviation="14"/>
<feColorMatrix type="matrix" values="0 0 0 0 0 0 0 0 0 0 0 0 0 0 0 0 0 0 0.25 0"/>
<feBlend mode="normal" in2="effect1_dropShadow_822_2477" result="effect2_dropShadow_822_2477"/>
<feBlend mode="normal" in="SourceGraphic" in2="effect2_dropShadow_822_2477" result="shape"/>
</filter>
</defs>
</svg>
